<svg xmlns="http://www.w3.org/2000/svg" xmlns:xlink="http://www.w3.org/1999/xlink" viewBox="0 0 32 32" id="sports"><defs><linearGradient id="a"><stop offset="0" stop-color="#ff1679"></stop><stop offset="1" stop-color="#ff770b"></stop></linearGradient><linearGradient id="b" x1="992.183" x2="1019.298" y1="516.081" y2="545.959" gradientTransform="translate(-1015.137 491.682) scale(1.02524)" gradientUnits="userSpaceOnUse" xlink:href="#a"></linearGradient></defs><g transform="translate(0 -1020.362)"><rect width="32" height="32" y="1020.362" fill="url(#b)" rx="6.763" ry="6.763"></rect><path style="text-indent:0;text-align:start;line-height:normal;text-transform:none;block-progression:tb;marker:none;-inkscape-font-specification:Sans" fill="#fff" d="m14.688 9.563-1 .28-7.032 1.845a.386.386 0 0 0-.25.468l1.282 4.906c.055.19.28.31.468.25l6.656-1.812.22.781-1.47 5.438a.385.385 0 0 0 .282.437l.969.282c.188.06.413-.061.468-.25l.656-2.5.657 2.5c.055.189.28.31.468.25l1-.282a.385.385 0 0 0 .282-.437l-1.469-5.469.188-.75 6.78 1.844a.387.387 0 0 0 .47-.282l1.28-4.875a.386.386 0 0 0-.25-.468l-7.03-1.875a.37.37 0 0 0-.063 0h-.031l-1-.281a.371.371 0 0 0-.094 0 .38.38 0 0 0-.344.25l-.812 3.062-.844-3.063a.38.38 0 0 0-.344-.25.371.371 0 0 0-.094 0zm-.188.812 1.094 4v.031l.531 1.938v.031l1.406 5.188-.312.062-1.782-6.656-1.187-4.5zm2.906 0 .25.094-1.187 4.344-.125-.5zm-3.906.188.281 1.093-1 .219.313 1.125 1-.281.281 1.094-1.031.25.281 1 .031.062-1.062.313-.313-1.063-1.062.281.25 1.063-1.063.312-.312-1.062-1.063.25.313 1.062-1.125.313-.25-1.063 1.062-.312-.281-1.063-1.094.281-.281-1.093 1.094-.25-.25-1.031-.031-.094 1.062-.25.281 1.062 1.094-.312-.281-.969-.031-.094 1.124-.281.282 1.063 1.062-.313-.25-.969-.031-.094zm-1.781 1.624-1.094.282.281 1.125L12 13.28zM12 13.281l.281 1.094 1.063-.313-.25-1.062zm-1.094.313-1.062.25.25 1.125 1.125-.313zm-1.062.25L9.53 12.78l-1.062.313.281 1.062zm8.594-3.281 1.062.28-.031.095-.25.968 1.062.313.282-1.063 1.125.25-.032.125-.281.969 1.094.313.281-1.094 1.063.281-.032.094-.25 1.031 1 .219.094.031-.281 1.063h-.094l-1-.25.281-1.063-1.062-.313-.313 1.063 1.063.313-.25 1.062.968.281.094.031-.25 1.063-1.125-.313.032-.062.28-1-1.062-.281-.281 1-.031.094-1.063-.313v-.063l.25-1 1.125.282.25-1.094-1.062-.281-.313 1.062-1.062-.25-.282.969-.03.094-1.063-.313.031-.062.281-1-1.031-.25-.094-.031.313-1.094h.062l1 .312.313-1.125-1-.25h-.094zm.468 2.468-.25 1.063 1.063.312.281-1.125zm1.094.25 1.094.313.281-1.094-1.094-.281zm-4.594 4.438.156.531-.906 3.375-.281-.063z" color="#000" transform="translate(0 1020.362)"></path></g></svg>